<?xml version="1.0" encoding="UTF-8" standalone="no"?>
<!-- Created with Inkscape (http://www.inkscape.org/) -->

<svg
   width="473mm"
   height="461mm"
   viewBox="0 0 473 461"
   version="1.1"
   id="svg1"
   xmlns="http://www.w3.org/2000/svg"
   xmlns:svg="http://www.w3.org/2000/svg">
  <defs
     id="defs1">
    <clipPath
       clipPathUnits="userSpaceOnUse"
       id="clipPath35">
      <path
         d="M 0,5829.787 H 1920 V 0 H 0 Z"
         transform="translate(-1007.7784,-4720.4532)"
         id="path35" />
    </clipPath>
  </defs>
  <g
     id="layer1">
    <path
       id="use566"
       d="m 0,0 c -11.296,-1.094 -19.447,-11.318 -18.003,-22.574 l 8.488,-66.182 -46.45,47.897 c -7.902,8.149 -20.975,8.149 -28.877,0 l -46.45,-47.897 8.488,66.182 c 1.444,11.256 -6.707,21.48 -18.003,22.574 l -66.414,6.456 57.035,34.623 c 9.701,5.89 12.611,18.635 6.425,28.154 l -36.363,55.945 62.635,-23.003 c 10.655,-3.912 22.435,1.76 26.017,12.526 l 21.068,63.316 21.069,-63.316 c 3.582,-10.766 15.362,-16.438 26.017,-12.526 L 39.315,125.178 2.952,69.233 C -3.234,59.714 -0.324,46.969 9.377,41.079 L 66.414,6.456 Z M 589.855,-116.924 467.519,-10.268 C 427.765,28.562 379.48,33.647 324.097,4.972 L 224.71,-46.505 c -2.939,-1.523 -5.265,-2.591 -7.066,-3.344 L 112.2,20.36 c -14.027,9.339 -11.038,30.754 5.009,35.896 l 69.512,22.268 c 34.617,13.865 81.365,30.881 96.208,105.922 l 19.747,99.89 c 5.911,5.821 10.283,10.127 16.193,15.948 l 146.116,26.557 c 10.928,1.987 18.178,12.456 16.191,23.388 l -15.252,83.877 c -1.987,10.929 -12.465,18.181 -23.395,16.189 L 282.841,421.182 c -55.114,-6.889 -89.2,-41.419 -101.326,-102.709 L 159.832,208.779 c -0.663,-3.3 -1.276,-5.777 -1.801,-7.667 L 37.376,162.449 C 21.331,157.307 6.453,172.992 12.438,188.744 l 25.938,68.282 c 12.138,34.811 26.544,82.787 -22.804,141.232 l -65.802,77.736 c -0.866,8.246 -1.505,14.347 -2.372,22.592 l 70.318,130.789 c 5.259,9.777 1.593,21.971 -8.186,27.235 l -75.073,40.388 c -9.788,5.264 -21.993,1.597 -27.249,-8.198 l -76.804,-143.043 c -28.99,-47.381 -23.233,-95.567 17.091,-143.21 l 72.245,-85.352 c 2.182,-2.538 3.758,-4.604 4.902,-6.215 l -44.995,-118.429 c -5.985,-15.751 -27.524,-17.602 -36.107,-3.103 l -37.192,62.817 c -18.893,32.325 -48.177,72.423 -124.644,70.252 l -101.812,-2.989 c -6.985,4.464 -12.154,7.768 -19.139,12.233 l -58.427,136.548 c -4.37,10.211 -16.188,14.946 -26.399,10.578 l -78.371,-33.52 c -10.217,-4.367 -14.955,-16.193 -10.58,-26.408 l 63.921,-149.241 c 18.995,-52.212 60.29,-77.692 122.656,-75.933 l 111.86,3.309 c 3.293,0.079 5.858,0.035 7.797,-0.07 l 64.567,-109.046 c 8.583,-14.496 -3.396,-32.492 -20.084,-30.164 l -72.353,10.084 c -38.455,4.464 -86.721,7.493 -132.621,-53.666 l -61.144,-81.443 c -7.85,-2.683 -13.655,-4.661 -21.505,-7.339 l -143.179,39.463 c -10.707,2.954 -21.782,-3.339 -24.734,-14.044 l -22.644,-82.196 c -2.952,-10.714 3.344,-21.791 14.057,-24.732 l 156.515,-43.03 c 4.149,-1.392 8.254,-2.592 12.322,-3.563 47.481,-11.379 88.989,6.118 123.515,52.098 l 67.172,89.475 c 1.987,2.652 3.632,4.639 4.917,6.092 l 125.493,-17.511 c 16.688,-2.328 23.288,-22.919 11.06,-34.513 l -52.992,-50.256 c -24.817,-24.421 -59.926,-63.128 -40.741,-137.17 l 25.559,-98.547 c -2.799,-7.812 -4.869,-13.589 -7.668,-21.397 l -120.128,-87.365 c -8.982,-6.53 -10.969,-19.108 -4.437,-28.088 l 50.133,-68.949 c 6.536,-8.989 19.123,-10.976 28.106,-4.433 l 131.216,95.544 c 46.665,30.076 62.405,75.96 46.768,136.479 l -28.073,108.25 c -0.847,3.23 -1.364,5.733 -1.707,7.685 l 91.988,87.251 c 12.226,11.593 32.435,3.912 33.879,-12.871 l 6.257,-72.761 c 2.936,-36.133 12,-86.227 81.8,-117.379 l 93.074,-41.543 c 4.346,-7.037 7.562,-12.245 11.908,-19.283 l -6.608,-148.374 c -0.495,-11.094 8.098,-20.49 19.193,-20.99 l 85.152,-3.807 c 11.104,-0.499 20.505,8.105 20.993,19.204 l 7.14,162.195 c 5.578,55.294 -20.541,96.188 -77.529,121.607 l -102.194,45.613 c -3.029,1.339 -5.324,2.503 -7.049,3.422 l -10.851,126.251 c -1.445,16.784 17.158,27.804 31.183,18.465 l 60.783,-40.475 c 14.727,-9.156 28.229,-20.736 47.86,-25.436 25.246,-6.049 56.72,-3.545 94.866,16.228 l 90.47,46.873 c 8.233,-0.989 14.323,-1.72 22.555,-2.714 l 111.895,-97.65 c 8.368,-7.308 21.071,-6.442 28.376,1.922 l 56.048,64.199 c 7.309,8.373 6.443,21.087 -1.934,28.387"
       style="fill:#afcec7;fill-opacity:1;fill-rule:nonzero;stroke:none"
       transform="matrix(0.35277776,0,0,-0.35277776,259.74619,238.91275)"
       clip-path="url(#clipPath35)" />
  </g>
</svg>
